<mxfile host="app.diagrams.net" agent="Mozilla/5.0 (Macintosh; Intel Mac OS X 10_15_7) AppleWebKit/537.36 (KHTML, like Gecko) Chrome/132.0.0.0 Safari/537.36" version="24.9.0">
  <diagram name="Page-1" id="fNRXeKS03E-Rk9nVcpqg">
    <mxGraphModel dx="571" dy="760" grid="1" gridSize="10" guides="1" tooltips="1" connect="1" arrows="1" fold="1" page="1" pageScale="1" pageWidth="1700" pageHeight="1100" math="0" shadow="0">
      <root>
        <mxCell id="0" />
        <mxCell id="1" parent="0" />
        <mxCell id="OdEhdkNMhlnMcnXVrTwg-9" style="edgeStyle=orthogonalEdgeStyle;rounded=0;orthogonalLoop=1;jettySize=auto;html=1;strokeColor=default;startArrow=none;startFill=0;endArrow=none;endFill=0;" edge="1" parent="1" source="OdEhdkNMhlnMcnXVrTwg-1" target="OdEhdkNMhlnMcnXVrTwg-4">
          <mxGeometry relative="1" as="geometry" />
        </mxCell>
        <mxCell id="OdEhdkNMhlnMcnXVrTwg-1" value="GestionUser" style="rounded=0;whiteSpace=wrap;html=1;" vertex="1" parent="1">
          <mxGeometry x="70" y="120" width="120" height="60" as="geometry" />
        </mxCell>
        <mxCell id="OdEhdkNMhlnMcnXVrTwg-10" style="edgeStyle=orthogonalEdgeStyle;rounded=0;orthogonalLoop=1;jettySize=auto;html=1;entryX=0.5;entryY=0;entryDx=0;entryDy=0;endArrow=none;endFill=0;" edge="1" parent="1" source="OdEhdkNMhlnMcnXVrTwg-2" target="OdEhdkNMhlnMcnXVrTwg-5">
          <mxGeometry relative="1" as="geometry" />
        </mxCell>
        <mxCell id="OdEhdkNMhlnMcnXVrTwg-2" value="GestionRess" style="rounded=0;whiteSpace=wrap;html=1;" vertex="1" parent="1">
          <mxGeometry x="270" y="120" width="120" height="60" as="geometry" />
        </mxCell>
        <mxCell id="OdEhdkNMhlnMcnXVrTwg-11" style="edgeStyle=orthogonalEdgeStyle;rounded=0;orthogonalLoop=1;jettySize=auto;html=1;entryX=0.5;entryY=0;entryDx=0;entryDy=0;endArrow=none;endFill=0;" edge="1" parent="1" source="OdEhdkNMhlnMcnXVrTwg-3" target="OdEhdkNMhlnMcnXVrTwg-6">
          <mxGeometry relative="1" as="geometry" />
        </mxCell>
        <mxCell id="OdEhdkNMhlnMcnXVrTwg-3" value="GestionEmprunts" style="rounded=0;whiteSpace=wrap;html=1;" vertex="1" parent="1">
          <mxGeometry x="470" y="120" width="120" height="60" as="geometry" />
        </mxCell>
        <mxCell id="OdEhdkNMhlnMcnXVrTwg-4" value="Utilisateur" style="rounded=0;whiteSpace=wrap;html=1;" vertex="1" parent="1">
          <mxGeometry x="70" y="260" width="120" height="60" as="geometry" />
        </mxCell>
        <mxCell id="OdEhdkNMhlnMcnXVrTwg-14" style="edgeStyle=orthogonalEdgeStyle;rounded=0;orthogonalLoop=1;jettySize=auto;html=1;entryX=0;entryY=0.5;entryDx=0;entryDy=0;endArrow=none;endFill=0;" edge="1" parent="1" source="OdEhdkNMhlnMcnXVrTwg-5" target="OdEhdkNMhlnMcnXVrTwg-6">
          <mxGeometry relative="1" as="geometry" />
        </mxCell>
        <mxCell id="OdEhdkNMhlnMcnXVrTwg-15" style="edgeStyle=orthogonalEdgeStyle;rounded=0;orthogonalLoop=1;jettySize=auto;html=1;entryX=0.5;entryY=0;entryDx=0;entryDy=0;endArrow=none;endFill=0;" edge="1" parent="1" source="OdEhdkNMhlnMcnXVrTwg-5" target="OdEhdkNMhlnMcnXVrTwg-7">
          <mxGeometry relative="1" as="geometry" />
        </mxCell>
        <mxCell id="OdEhdkNMhlnMcnXVrTwg-5" value="Ressources" style="rounded=0;whiteSpace=wrap;html=1;" vertex="1" parent="1">
          <mxGeometry x="270" y="260" width="120" height="60" as="geometry" />
        </mxCell>
        <mxCell id="OdEhdkNMhlnMcnXVrTwg-13" style="edgeStyle=orthogonalEdgeStyle;rounded=0;orthogonalLoop=1;jettySize=auto;html=1;entryX=0.5;entryY=1;entryDx=0;entryDy=0;endArrow=none;endFill=0;" edge="1" parent="1" source="OdEhdkNMhlnMcnXVrTwg-6" target="OdEhdkNMhlnMcnXVrTwg-4">
          <mxGeometry relative="1" as="geometry">
            <Array as="points">
              <mxPoint x="530" y="380" />
              <mxPoint x="130" y="380" />
            </Array>
          </mxGeometry>
        </mxCell>
        <mxCell id="OdEhdkNMhlnMcnXVrTwg-6" value="Emprunt" style="rounded=0;whiteSpace=wrap;html=1;" vertex="1" parent="1">
          <mxGeometry x="470" y="260" width="120" height="60" as="geometry" />
        </mxCell>
        <mxCell id="OdEhdkNMhlnMcnXVrTwg-12" style="edgeStyle=orthogonalEdgeStyle;rounded=0;orthogonalLoop=1;jettySize=auto;html=1;entryX=0.5;entryY=0;entryDx=0;entryDy=0;endArrow=none;endFill=0;" edge="1" parent="1" source="OdEhdkNMhlnMcnXVrTwg-7" target="OdEhdkNMhlnMcnXVrTwg-8">
          <mxGeometry relative="1" as="geometry" />
        </mxCell>
        <mxCell id="OdEhdkNMhlnMcnXVrTwg-7" value="Rapport" style="rounded=0;whiteSpace=wrap;html=1;" vertex="1" parent="1">
          <mxGeometry x="270" y="490" width="120" height="60" as="geometry" />
        </mxCell>
        <mxCell id="OdEhdkNMhlnMcnXVrTwg-8" value="Génération de statistiques" style="rounded=0;whiteSpace=wrap;html=1;" vertex="1" parent="1">
          <mxGeometry x="205" y="630" width="250" height="60" as="geometry" />
        </mxCell>
      </root>
    </mxGraphModel>
  </diagram>
</mxfile>
